<?xml version="1.0" encoding="UTF-8" standalone="no"?>
<!-- Created with Inkscape (http://www.inkscape.org/) -->

<svg
   xmlns:dc="http://purl.org/dc/elements/1.1/"
   xmlns:cc="http://creativecommons.org/ns#"
   xmlns:rdf="http://www.w3.org/1999/02/22-rdf-syntax-ns#"
   xmlns:svg="http://www.w3.org/2000/svg"
   xmlns="http://www.w3.org/2000/svg"
   xmlns:sodipodi="http://sodipodi.sourceforge.net/DTD/sodipodi-0.dtd"
   xmlns:inkscape="http://www.inkscape.org/namespaces/inkscape"
   width="256"
   height="256"
   id="svg2"
   version="1.1"
   inkscape:version="0.48.4 r9939"
   sodipodi:docname="icon.svg"
   inkscape:export-filename="C:\tp\pure\mo\icon256.png"
   inkscape:export-xdpi="90"
   inkscape:export-ydpi="90">
  <defs
     id="defs4" />
  <sodipodi:namedview
     id="base"
     pagecolor="#ffffff"
     bordercolor="#666666"
     borderopacity="1.0"
     inkscape:pageopacity="0.0"
     inkscape:pageshadow="2"
     inkscape:zoom="1.4"
     inkscape:cx="-55.399142"
     inkscape:cy="63.006857"
     inkscape:document-units="px"
     inkscape:current-layer="layer1"
     showgrid="true"
     width="256px"
     inkscape:window-width="1920"
     inkscape:window-height="1003"
     inkscape:window-x="1911"
     inkscape:window-y="-9"
     inkscape:window-maximized="1">
    <inkscape:grid
       type="xygrid"
       id="grid2985"
       empspacing="5"
       visible="true"
       enabled="true"
       snapvisiblegridlinesonly="true" />
  </sodipodi:namedview>
  <metadata
     id="metadata7">
    <rdf:RDF>
      <cc:Work
         rdf:about="">
        <dc:format>image/svg+xml</dc:format>
        <dc:type
           rdf:resource="http://purl.org/dc/dcmitype/StillImage" />
        <dc:title />
      </cc:Work>
    </rdf:RDF>
  </metadata>
  <g
     inkscape:label="Layer 1"
     inkscape:groupmode="layer"
     id="layer1"
     transform="translate(0,-796.3622)">
    <g
       id="g3763"
       transform="translate(-2.2541065,-0.827875)">
      <path
         style="fill:#ffffff;fill-opacity:1;stroke:none"
         d="m 27.999527,806.54655 204.509173,0 c 2.16275,0 3.90386,1.66645 3.90386,3.73646 l 0,178.88008 c 0,16.30581 -47.12507,54.67051 -63.48311,54.67051 l -144.929923,0 c -2.162718,0 -3.903874,-1.6664 -3.903874,-3.7365 l 0,-229.81409 c 0,-2.07001 1.741156,-3.73646 3.903874,-3.73646 z"
         id="path4027"
         sodipodi:nodetypes="ccccccccc"
         inkscape:connector-curvature="0" />
      <path
         inkscape:connector-curvature="0"
         sodipodi:nodetypes="ccccccccc"
         id="path4951"
         d="m 27.999527,806.54655 204.509173,0 c 2.16275,0 3.90386,1.66645 3.90386,3.73646 l 0,178.88008 c 0,16.30581 -47.12507,54.67051 -63.48311,54.67051 l -144.929923,0 c -2.162718,0 -3.903874,-1.6664 -3.903874,-3.7365 l 0,-229.81409 c 0,-2.07001 1.741156,-3.73646 3.903874,-3.73646 z"
         style="fill:none;stroke:#000000;stroke-width:12;stroke-linecap:butt;stroke-linejoin:miter;stroke-miterlimit:4;stroke-opacity:1;stroke-dasharray:none;stroke-dashoffset:0" />
      <path
         inkscape:connector-curvature="0"
         style="color:#000000;fill:#000000;fill-opacity:1;fill-rule:evenodd;stroke:none;stroke-width:18.06580162;marker:none;visibility:visible;display:inline;overflow:visible"
         d="m 167.12792,1040.8514 c 14.87067,2.146 70.2278,-29.4661 67.99852,-55.27647 -11.44924,15.76167 -34.85116,8.36995 -64.94344,9.40422 0,0 2.89563,42.61995 -3.05508,45.87225 z"
         id="path4953"
         sodipodi:nodetypes="cccc" />
      <path
         sodipodi:nodetypes="cccssssscsssssssccssscsscccssccccc"
         inkscape:connector-curvature="0"
         id="path3838-8"
         d="m 50.683982,823.80712 c -1.450875,-0.46858 -2.044538,-0.60314 -4.39307,-0.77378 -1.530042,0.0126 -2.002722,0.22233 -3.075756,0.64152 -4.690609,2.92785 -7.484335,6.71483 -7.869324,10.35153 -0.384984,3.63666 1.176091,6.8071 3.314924,9.90634 4.27764,6.19854 11.140006,12.52603 15.918937,20.32526 4.687099,7.64937 5.164186,14.30184 5.688117,21.2151 0.523938,6.91329 1.062605,14.19632 6.609256,21.43368 3.725151,4.86067 8.114421,8.84968 12.662311,12.41047 -1.04475,-0.0124 -2.3071,-0.11595 -3.28937,-0.0278 -2.30349,0.20663 -5.52488,0.81847 -7.49061,3.18137 -1.965715,2.36289 -1.09047,4.42597 -0.33615,5.69744 0.75433,1.27145 1.76636,2.34167 2.96256,3.48491 2.39239,2.28636 5.61636,4.81762 8.90391,7.67405 7.5454,6.55587 16.668243,9.28501 23.497193,12.40697 6.82895,3.12197 11.75726,6.20728 14.2776,14.5968 0.70006,2.3303 0.50605,2.1776 0.49478,3.1494 -0.0525,-0.016 -0.066,-0.034 -0.12718,-0.05 -0.33968,-0.092 -0.6942,-0.2517 -2.33032,-0.2076 -0.81808,0.022 -2.28519,0.1206 -3.85069,1.075 -1.56554,0.9543 -2.25584,2.4606 -2.32498,3.2704 -0.13828,1.6193 0.41787,1.8411 0.61877,2.1238 0.80359,1.1311 1.13719,1.1957 2.01509,1.9584 3.66075,3.1807 7.24056,5.2621 11.53752,6.5178 3.9461,1.1531 8.43286,1.6314 14.15497,2.4921 0.12063,5.5656 0.82915,11.4853 4.35676,19.37002 l 11.06434,-3.3613 c -4.83252,-10.80152 -4.44374,-16.62542 -3.94303,-24.68942 0.5007,-8.0642 1.14339,-18.06908 -3.60763,-34.93919 -9.71254,-34.48827 -52.45314,-88.93035 -95.43896,-119.23351 z m 58.132978,102.86263 c 0.0349,0.021 0.0537,0.0466 0.0609,0.0626 0.0713,0.15858 -0.19545,0.6423 -0.59636,1.07457 z"
         style="font-size:medium;font-style:normal;font-variant:normal;font-weight:normal;font-stretch:normal;text-indent:0;text-align:start;text-decoration:none;line-height:normal;letter-spacing:normal;word-spacing:normal;text-transform:none;direction:ltr;block-progression:tb;writing-mode:lr-tb;text-anchor:start;baseline-shift:baseline;color:#000000;fill:#000000;fill-opacity:1;fill-rule:nonzero;stroke:none;stroke-width:3.36293006;marker:none;visibility:visible;display:inline;overflow:visible;enable-background:accumulate;font-family:Sans;-inkscape-font-specification:Sans" />
    </g>
  </g>
</svg>
