<?xml version="1.0" encoding="UTF-8" standalone="no"?>
<!-- Created with Inkscape (http://www.inkscape.org/) -->

<svg
   xmlns:dc="http://purl.org/dc/elements/1.1/"
   xmlns:cc="http://creativecommons.org/ns#"
   xmlns:rdf="http://www.w3.org/1999/02/22-rdf-syntax-ns#"
   xmlns:svg="http://www.w3.org/2000/svg"
   xmlns="http://www.w3.org/2000/svg"
   xmlns:sodipodi="http://sodipodi.sourceforge.net/DTD/sodipodi-0.dtd"
   xmlns:inkscape="http://www.inkscape.org/namespaces/inkscape"
   width="256"
   height="256"
   id="svg2"
   version="1.1"
   inkscape:version="0.48.4 r9939"
   sodipodi:docname="icon.svg"
   inkscape:export-filename="C:\tp\pure\mo\icon256.png"
   inkscape:export-xdpi="90"
   inkscape:export-ydpi="90">
  <defs
     id="defs4" />
  <sodipodi:namedview
     id="base"
     pagecolor="#ffffff"
     bordercolor="#666666"
     borderopacity="1.0"
     inkscape:pageopacity="0.0"
     inkscape:pageshadow="2"
     inkscape:zoom="1.4"
     inkscape:cx="83.529429"
     inkscape:cy="67.746373"
     inkscape:document-units="px"
     inkscape:current-layer="layer1"
     showgrid="true"
     width="256px"
     inkscape:window-width="1920"
     inkscape:window-height="1003"
     inkscape:window-x="1911"
     inkscape:window-y="-9"
     inkscape:window-maximized="1">
    <inkscape:grid
       type="xygrid"
       id="grid2985"
       empspacing="5"
       visible="true"
       enabled="true"
       snapvisiblegridlinesonly="true" />
  </sodipodi:namedview>
  <metadata
     id="metadata7">
    <rdf:RDF>
      <cc:Work
         rdf:about="">
        <dc:format>image/svg+xml</dc:format>
        <dc:type
           rdf:resource="http://purl.org/dc/dcmitype/StillImage" />
        <dc:title />
      </cc:Work>
    </rdf:RDF>
  </metadata>
  <g
     inkscape:label="Layer 1"
     inkscape:groupmode="layer"
     id="layer1"
     transform="translate(0,-796.3622)">
    <path
       inkscape:connector-curvature="0"
       sodipodi:nodetypes="ccccccccc"
       id="path4027"
       d="m 33.834254,801.71368 212.839716,0 c 2.25085,0 4.06288,1.73433 4.06288,3.88866 l 0,186.16664 c 0,16.97002 -49.04467,56.89752 -66.06905,56.89752 l -150.833546,0 c -2.250815,0 -4.062896,-1.7343 -4.062896,-3.8887 l 0,-239.17546 c 0,-2.15433 1.812081,-3.88866 4.062896,-3.88866 z"
       style="fill:#ffffff;stroke:none;stroke-width:8.54025459000000000;stroke-linecap:butt;stroke-linejoin:miter;stroke-miterlimit:4;stroke-opacity:1;stroke-dasharray:none;stroke-dashoffset:0;fill-opacity:1" />
    <path
       style="fill:none;stroke:#000000;stroke-width:8.54025459;stroke-linecap:butt;stroke-linejoin:miter;stroke-miterlimit:4;stroke-opacity:1;stroke-dasharray:none;stroke-dashoffset:0"
       d="m 33.834254,801.71368 212.839716,0 c 2.25085,0 4.06288,1.73433 4.06288,3.88866 l 0,186.16664 c 0,16.97002 -49.04467,56.89752 -66.06905,56.89752 l -150.833546,0 c -2.250815,0 -4.062896,-1.7343 -4.062896,-3.8887 l 0,-239.17546 c 0,-2.15433 1.812081,-3.88866 4.062896,-3.88866 z"
       id="path4951"
       sodipodi:nodetypes="ccccccccc"
       inkscape:connector-curvature="0" />
    <path
       sodipodi:nodetypes="cccc"
       id="path4953"
       d="m 178.62995,1045.5628 c 15.47642,2.2334 73.08848,-30.6664 70.76839,-57.52814 -11.91561,16.40374 -36.27079,8.7109 -67.58886,9.7873 0,0 3.01358,44.35604 -3.17953,47.74084 z"
       style="color:#000000;fill:#000000;fill-opacity:1;fill-rule:evenodd;stroke:none;stroke-width:18.06580162;marker:none;visibility:visible;display:inline;overflow:visible"
       inkscape:connector-curvature="0" />
    <path
       style="font-size:medium;font-style:normal;font-variant:normal;font-weight:normal;font-stretch:normal;text-indent:0;text-align:start;text-decoration:none;line-height:normal;letter-spacing:normal;word-spacing:normal;text-transform:none;direction:ltr;block-progression:tb;writing-mode:lr-tb;text-anchor:start;baseline-shift:baseline;color:#000000;fill:#000000;fill-opacity:1;fill-rule:nonzero;stroke:none;stroke-width:3.36293006000000010;marker:none;visibility:visible;display:inline;overflow:visible;enable-background:accumulate;font-family:Sans;-inkscape-font-specification:Sans"
       d="m 20.89241,799.68148 c -1.739753,-0.56552 -2.451618,-0.72791 -5.267757,-0.93385 -1.834682,0.0152 -2.401476,0.26832 -3.688158,0.77423 -5.6245372,3.53355 -8.9745122,8.10395 -9.4361538,12.49299 -0.4616375,4.38899 1.4102576,8.21531 3.9749451,11.9557 5.1293447,7.48085 13.3580497,15.11733 19.0884957,24.53002 5.620329,9.23182 6.192406,17.26051 6.820655,25.60394 0.628258,8.34347 1.274177,17.13316 7.9252,25.86775 4.466855,5.86621 9.730056,10.68044 15.183457,14.97786 -1.252766,-0.015 -2.766461,-0.13993 -3.944309,-0.0336 -2.762128,0.24938 -6.624917,0.98779 -8.982038,3.83952 -2.357097,2.85171 -1.307581,5.34158 -0.40307,6.87609 0.904511,1.53448 2.118048,2.8261 3.552419,4.20584 2.868728,2.75935 6.734617,5.81426 10.676732,9.26161 9.047734,7.91211 19.986989,11.20583 28.175622,14.97364 8.188641,3.76783 14.098202,7.4914 17.12036,17.61649 0.83944,2.81241 0.6068,2.62811 0.59329,3.8009 -0.0629,-0.019 -0.0791,-0.0405 -0.1525,-0.0608 -0.40731,-0.11165 -0.83242,-0.30379 -2.794298,-0.25048 -0.98097,0.0265 -2.740194,0.14549 -4.617393,1.29734 -1.877251,1.15174 -2.704985,2.96968 -2.787893,3.94689 -0.165817,1.95431 0.501069,2.222 0.741981,2.56319 0.963586,1.36516 1.36361,1.44308 2.416296,2.36352 4.389629,3.83868 8.682197,6.3507 13.834707,7.86623 4.73179,1.3917 10.1119,1.96891 16.97331,3.00755 0.14465,6.71705 0.99424,13.86145 5.22422,23.37725 l 13.26732,-4.0567 c -5.79471,-13.036 -5.32852,-20.06469 -4.72811,-29.79701 0.60039,-9.73243 1.37104,-21.80707 -4.32593,-42.16716 C 123.68744,901.95798 72.436919,836.25327 20.892372,799.68119 z m 69.7076,124.14219 c 0.04194,0.0253 0.06443,0.0563 0.073,0.0756 0.08545,0.19139 -0.234355,0.77518 -0.715091,1.29687 z"
       id="path3838-8"
       inkscape:connector-curvature="0"
       sodipodi:nodetypes="cccssssscsssssssccssscsscccssccccc" />
  </g>
</svg>
