<?xml version="1.0" encoding="UTF-8" standalone="no"?>
<!-- Created with Inkscape (http://www.inkscape.org/) -->

<svg
   xmlns:dc="http://purl.org/dc/elements/1.1/"
   xmlns:cc="http://creativecommons.org/ns#"
   xmlns:rdf="http://www.w3.org/1999/02/22-rdf-syntax-ns#"
   xmlns:svg="http://www.w3.org/2000/svg"
   xmlns="http://www.w3.org/2000/svg"
   xmlns:sodipodi="http://sodipodi.sourceforge.net/DTD/sodipodi-0.dtd"
   xmlns:inkscape="http://www.inkscape.org/namespaces/inkscape"
   width="256"
   height="256"
   id="svg2"
   version="1.1"
   inkscape:version="0.48.4 r9939"
   sodipodi:docname="icon.svg"
   inkscape:export-filename="C:\tp\pure\mo\icon256.png"
   inkscape:export-xdpi="90"
   inkscape:export-ydpi="90">
  <defs
     id="defs4" />
  <sodipodi:namedview
     id="base"
     pagecolor="#ffffff"
     bordercolor="#666666"
     borderopacity="1.0"
     inkscape:pageopacity="0.0"
     inkscape:pageshadow="2"
     inkscape:zoom="0.9899495"
     inkscape:cx="168.6413"
     inkscape:cy="40.911585"
     inkscape:document-units="px"
     inkscape:current-layer="layer1"
     showgrid="true"
     width="256px"
     inkscape:window-width="1920"
     inkscape:window-height="1003"
     inkscape:window-x="1911"
     inkscape:window-y="-9"
     inkscape:window-maximized="1">
    <inkscape:grid
       type="xygrid"
       id="grid2985"
       empspacing="5"
       visible="true"
       enabled="true"
       snapvisiblegridlinesonly="true" />
  </sodipodi:namedview>
  <metadata
     id="metadata7">
    <rdf:RDF>
      <cc:Work
         rdf:about="">
        <dc:format>image/svg+xml</dc:format>
        <dc:type
           rdf:resource="http://purl.org/dc/dcmitype/StillImage" />
        <dc:title />
      </cc:Work>
    </rdf:RDF>
  </metadata>
  <g
     inkscape:label="Layer 1"
     inkscape:groupmode="layer"
     id="layer1"
     transform="translate(0,-796.3622)">
    <g
       id="g2994"
       transform="matrix(1.0458981,0,0,1.0458981,-11.679171,-48.236311)">
      <path
         inkscape:connector-curvature="0"
         sodipodi:nodetypes="ccccccccc"
         id="path4951-1"
         d="m 68.317514,821.9755 169.970856,0 c 1.7975,0 3.24457,1.50003 3.24457,3.36315 l 0,161.00647 c 0,14.67648 -39.16642,49.20778 -52.76185,49.20778 l -120.453576,0 c -1.797457,0 -3.244565,-1.4999 -3.244565,-3.363 l 0,-206.85125 c 0,-1.86312 1.447108,-3.36315 3.244565,-3.36315 z"
         style="fill:#ffffff;fill-opacity:1;stroke:none" />
      <path
         inkscape:connector-curvature="0"
         id="path4951"
         d="m 65.258335,810.9169 c -6.759847,0 -12.18323,5.79641 -12.18323,12.28619 l 0,215.42011 c 0,6.4898 5.423726,12.3205 12.18323,12.3205 l 125.470105,0 c 7.25928,0 12.76113,-3.2191 19.1843,-7.207 6.42317,-3.9877 13.16051,-9.2288 19.49317,-14.9974 6.33265,-5.7685 12.21335,-12.0006 16.74765,-18.189 4.53429,-6.1884 8.30518,-11.9355 8.30518,-19.66479 l 0,-167.68242 c 0,-6.48973 -5.42341,-12.28619 -12.18322,-12.28619 l -177.017185,0 z m 5.388076,17.57131 166.241029,0 0,159.89202 c -14.98708,5.68308 -37.1424,0.97127 -63.79894,1.88754 0,0 1.8479,27.41213 -0.0343,43.10463 l -102.407774,0 0,-204.88419 z"
         style="font-size:medium;font-style:normal;font-variant:normal;font-weight:normal;font-stretch:normal;text-indent:0;text-align:start;text-decoration:none;line-height:normal;letter-spacing:normal;word-spacing:normal;text-transform:none;direction:ltr;block-progression:tb;writing-mode:lr-tb;text-anchor:start;baseline-shift:baseline;color:#000000;fill:#444444;fill-opacity:1;stroke:none;stroke-width:16;marker:none;visibility:visible;display:inline;overflow:visible;enable-background:accumulate;font-family:Sans;-inkscape-font-specification:Sans" />
      <path
         sodipodi:nodetypes="cccssssscsssssssccssscsscccssccccc"
         inkscape:connector-curvature="0"
         id="path3838-8"
         d="m 34.039682,809.74202 c -1.663406,-0.5407 -2.344031,-0.69597 -5.036587,-0.89287 -1.754169,0.0145 -2.29609,0.25655 -3.526307,0.74026 -5.377711,3.37848 -8.580676,7.74831 -9.022059,11.94474 -0.441379,4.19639 1.34837,7.85479 3.800509,11.43104 4.904249,7.15256 12.771847,14.45392 18.250818,23.45355 5.373687,8.82669 5.920659,16.50305 6.521338,24.48034 0.600688,7.97732 1.218261,16.38129 7.577411,24.73257 4.270832,5.60878 9.303063,10.21174 14.517148,14.32057 -1.19779,-0.0143 -2.645058,-0.13379 -3.771217,-0.0321 -2.640915,0.23843 -6.33419,0.94444 -8.587871,3.67102 -2.253659,2.72657 -1.2502,5.10717 -0.385382,6.57434 0.864817,1.46714 2.0251,2.70208 3.396525,4.02127 2.742837,2.63826 6.439075,5.55911 10.208195,8.85518 8.650684,7.56489 19.109882,10.71407 26.939166,14.31654 7.829291,3.60248 13.479521,7.16264 16.369051,16.84341 0.8026,2.68899 0.58017,2.51277 0.56726,3.6341 -0.0601,-0.0182 -0.0756,-0.0387 -0.14581,-0.0581 -0.38944,-0.10675 -0.79589,-0.29045 -2.67168,-0.23948 -0.93792,0.0253 -2.61994,0.1391 -4.41476,1.2404 -1.79487,1.1012 -2.58628,2.83936 -2.66555,3.77369 -0.15854,1.86855 0.47908,2.12449 0.70942,2.45071 0.9213,1.30525 1.30377,1.37975 2.31026,2.2598 4.19699,3.67022 8.30119,6.072 13.22759,7.52102 4.52414,1.33063 9.66815,1.88251 16.22845,2.87557 0.1383,6.42231 0.95061,13.25311 4.99496,22.35131 l 12.6851,-3.8786 c -5.54041,-12.464 -5.09468,-19.18419 -4.52062,-28.48942 0.57404,-9.30533 1.31087,-20.85009 -4.13609,-40.3167 C 132.32367,907.53023 83.322217,844.7089 34.039646,809.74174 z m 66.648558,118.69435 c 0.0401,0.0242 0.0616,0.0538 0.0698,0.0723 0.0817,0.18299 -0.22407,0.74116 -0.68371,1.23996 z"
         style="font-size:medium;font-style:normal;font-variant:normal;font-weight:normal;font-stretch:normal;text-indent:0;text-align:start;text-decoration:none;line-height:normal;letter-spacing:normal;word-spacing:normal;text-transform:none;direction:ltr;block-progression:tb;writing-mode:lr-tb;text-anchor:start;baseline-shift:baseline;color:#000000;fill:#1f77b4;fill-opacity:1;fill-rule:nonzero;stroke:none;stroke-width:3.36293006;marker:none;visibility:visible;display:inline;overflow:visible;enable-background:accumulate;font-family:Sans;-inkscape-font-specification:Sans" />
    </g>
  </g>
</svg>
